<?xml version="1.0" encoding="utf-8"?>
<!-- Generator: Adobe Illustrator 23.0.3, SVG Export Plug-In . SVG Version: 6.00 Build 0)  -->
<svg version="1.1" id="Layer_1" xmlns="http://www.w3.org/2000/svg" xmlns:xlink="http://www.w3.org/1999/xlink" x="0px" y="0px"
	 viewBox="0 0 20 20" style="enable-background:new 0 0 20 20;" xml:space="preserve">
<style type="text/css">
	.st0{enable-background:new    ;}
	.st1{fill:#FFFFFF;}
</style>
<g class="st0">
	<path class="st1" d="M13.7,9.9l-4.2,4.2c-0.1,0.1-0.1,0.1-0.2,0.1c-0.1,0-0.2,0-0.3-0.1l-0.5-0.5c-0.1-0.1-0.1-0.1-0.1-0.2
		c0-0.1,0.1-0.1,0.1-0.2l3.6-3.6L8.5,6.1C8.5,6,8.5,6,8.5,5.9c0-0.1,0.1-0.1,0.1-0.2L9,5.2c0.1-0.1,0.1-0.1,0.2-0.1
		c0.1,0,0.1,0,0.2,0.1l4.2,4.2c0.1,0.1,0.1,0.2,0.1,0.3C13.7,9.8,13.7,9.8,13.7,9.9z"/>
</g>
</svg>
