<?xml version="1.0" encoding="utf-8"?>
<!-- Generator: Adobe Illustrator 23.0.3, SVG Export Plug-In . SVG Version: 6.00 Build 0)  -->
<svg version="1.1" xmlns="http://www.w3.org/2000/svg" xmlns:xlink="http://www.w3.org/1999/xlink" x="0px" y="0px"
	 viewBox="0 0 40 48" style="enable-background:new 0 0 40 48;" xml:space="preserve">
<style type="text/css">
	.st0{display:none;}
	.st1{display:inline;enable-background:new    ;}
	.st2{fill:#CCCCCC;stroke:#FFFFFF;stroke-miterlimit:10;}
	.st3{fill:#D7D7D7;}
</style>
<g id="Layer_1">
</g>
<g id="Layer_3" class="st0">
	<g class="st1">
		<path class="st2" d="M36,25L11.7,49.3c-0.4,0.4-0.8,0.4-1.2,0.4s-1.2,0-1.6-0.4l-2.7-2.7c-0.4-0.4-0.4-0.8-0.4-1.2
			s0.4-0.8,0.4-1.2L27,23.5L6.2,3.1C5.9,2.7,5.9,2.3,5.9,2s0.4-0.8,0.4-1.2L9-2c0.4-0.4,0.8-0.4,1.2-0.4s0.8,0,1.2,0.4l24.2,24.2
			c0.4,0.4,0.8,1.2,0.8,1.6C36.3,24.2,36,24.6,36,25z"/>
	</g>
</g>
<g id="Layer_2">
	<path class="st3" d="M9.1,50C8.5,50,8,49.5,8,48.9c0-0.3,0.1-0.6,0.3-0.8L32.5,24L8.3-0.2C7.9-0.6,8-1.4,8.4-1.8
		c0.4-0.3,1.1-0.3,1.4,0l24.9,24.9c0.4,0.4,0.4,1.1,0,1.6L9.9,49.7C9.7,49.9,9.4,50,9.1,50z"/>
</g>
</svg>
