<?xml version="1.0" encoding="utf-8"?>
<!-- Generator: Adobe Illustrator 23.0.3, SVG Export Plug-In . SVG Version: 6.00 Build 0)  -->
<svg version="1.1" id="Layer_1" xmlns="http://www.w3.org/2000/svg" xmlns:xlink="http://www.w3.org/1999/xlink" x="0px" y="0px"
	 viewBox="0 0 15 15" style="enable-background:new 0 0 15 15;" xml:space="preserve">
<style type="text/css">
	.st0{enable-background:new    ;}
	.st1{fill:#898989;}
</style>
<g class="st0">
	<path class="st1" d="M10.9,7.8l-5.6,5.6c-0.1,0.1-0.2,0.1-0.3,0.1c-0.1,0-0.3,0-0.4-0.1l-0.6-0.6C4,12.7,4,12.6,4,12.5
		c0-0.1,0.1-0.2,0.1-0.3l4.8-4.8L4.1,2.8C4,2.7,4,2.6,4,2.5s0.1-0.2,0.1-0.3l0.6-0.6C4.8,1.5,4.9,1.5,5,1.5s0.2,0,0.3,0.1l5.6,5.6
		C10.9,7.3,11,7.5,11,7.5S10.9,7.7,10.9,7.8z"/>
</g>
</svg>
