<?xml version="1.0" encoding="utf-8"?>
<!-- Generator: Adobe Illustrator 23.0.3, SVG Export Plug-In . SVG Version: 6.00 Build 0)  -->
<svg version="1.1" id="Layer_1" xmlns="http://www.w3.org/2000/svg" xmlns:xlink="http://www.w3.org/1999/xlink" x="0px" y="0px"
	 viewBox="0 0 15 15" style="enable-background:new 0 0 15 15;" xml:space="preserve">
<style type="text/css">
	.st0{enable-background:new    ;}
	.st1{fill:#898989;}
</style>
<g class="st0">
	<path class="st1" d="M7.2,10.9L1.6,5.3C1.5,5.2,1.5,5.2,1.5,5.1c0-0.1,0-0.3,0.1-0.4l0.6-0.6C2.3,4,2.4,4,2.5,4s0.2,0.1,0.3,0.1
		l4.8,4.8l4.7-4.8C12.3,4,12.4,4,12.5,4s0.2,0.1,0.3,0.1l0.6,0.6c0.1,0.1,0.1,0.2,0.1,0.3c0,0.1,0,0.2-0.1,0.3l-5.6,5.6
		C7.7,10.9,7.5,11,7.5,11S7.3,10.9,7.2,10.9z"/>
</g>
</svg>
