<?xml version="1.0" encoding="utf-8"?>
<!-- Generator: Adobe Illustrator 23.0.3, SVG Export Plug-In . SVG Version: 6.00 Build 0)  -->
<svg version="1.1" xmlns="http://www.w3.org/2000/svg" xmlns:xlink="http://www.w3.org/1999/xlink" x="0px" y="0px"
	 viewBox="0 0 25 25" style="enable-background:new 0 0 25 25;" xml:space="preserve">
<style type="text/css">
	.st0{display:none;}
	.st1{display:inline;fill:#567C70;}
	.st2{font-family:'FontAwesome';}
	.st3{font-size:24px;}
	.st4{display:inline;}
	.st5{enable-background:new    ;}
	.st6{fill:#252525;}
	.st7{fill:#FFFFFF;}
</style>
<g id="Layer_1" class="st0">
	<g>
		<text transform="matrix(1 0 0 1 5.2861 20.8799)" class="st1 st2 st3"></text>
	</g>
	<g class="st4">
		<g class="st5">
			<path class="st6" d="M24.5,24c0,0.2-0.1,0.5-0.2,0.7c-0.2,0.2-0.4,0.3-0.6,0.3H1.4c-0.2,0-0.5-0.1-0.6-0.3
				c-0.2-0.2-0.2-0.4-0.2-0.7L1,19.8h23L24.5,24z M23.9,19H1.1L2.2,8.6c0.1-0.4,0.4-0.8,0.9-0.8h3.4v1.7c0,1,0.8,1.7,1.7,1.7
				s1.7-0.8,1.7-1.7V7.8H15v1.7c0,1,0.8,1.7,1.7,1.7c0.9,0,1.7-0.8,1.7-1.7V7.8h3.4c0.4,0,0.8,0.3,0.9,0.8L23.9,19z M17.6,9.5
				c0,0.5-0.4,0.9-0.9,0.9s-0.9-0.4-0.9-0.9V6.1c0-1.9-1.5-3.4-3.4-3.4S9,4.2,9,6.1v3.4c0,0.5-0.4,0.9-0.9,0.9S7.4,10,7.4,9.5V6.1
				C7.4,3.3,9.7,1,12.5,1s5.1,2.3,5.1,5.1V9.5z"/>
		</g>
	</g>
</g>
<g id="Layer_2">
	<path class="st7" d="M22.8,15.9l2.1-9c0.1-0.7-0.3-1.3-1-1.3h-17L6.4,3.6c-0.1-0.5-0.5-0.8-1-0.8H0.9c-0.6,0-1,0.5-1,1v0.7
		c0,0.6,0.5,1,1,1h3l3,14.9c-0.7,0.4-1.2,1.2-1.2,2.1c0,1.3,1.1,2.4,2.4,2.4s2.4-1.1,2.4-2.4c0-0.7-0.3-1.3-0.7-1.7H19
		c-0.5,0.4-0.7,1.1-0.7,1.7c0,1.3,1.1,2.4,2.4,2.4c1.3,0,2.4-1.1,2.4-2.4c0-1-0.6-1.8-1.4-2.2l0.2-1.1c0.1-0.7-0.3-1.3-1-1.3H9.4
		l-0.3-1.4h12.7C22.3,16.7,22.7,16.3,22.8,15.9z"/>
</g>
</svg>
