<?xml version="1.0" encoding="utf-8"?>
<!-- Generator: Adobe Illustrator 23.0.3, SVG Export Plug-In . SVG Version: 6.00 Build 0)  -->
<svg version="1.1" id="Layer_1" xmlns="http://www.w3.org/2000/svg" xmlns:xlink="http://www.w3.org/1999/xlink" x="0px" y="0px"
	 viewBox="0 0 20 20" style="enable-background:new 0 0 20 20;" xml:space="preserve">
<style type="text/css">
	.st0{enable-background:new    ;}
	.st1{fill:#363636;}
</style>
<g class="st0">
	<path class="st1" d="M13.9,10.4l-6.4,6.4c-0.1,0.1-0.2,0.1-0.3,0.1c-0.1,0-0.3,0-0.4-0.1L6.1,16C6,15.9,6,15.8,6,15.7
		c0-0.1,0.1-0.2,0.1-0.3l5.4-5.4L6.1,4.6C6,4.5,6,4.4,6,4.3C6,4.2,6.1,4.1,6.1,4l0.7-0.7C6.9,3.2,7,3.2,7.1,3.2c0.1,0,0.2,0,0.3,0.1
		l6.4,6.4c0.1,0.1,0.2,0.3,0.2,0.4C14,10.2,13.9,10.3,13.9,10.4z"/>
</g>
</svg>
