<?xml version="1.0" encoding="utf-8"?>
<!-- Generator: Adobe Illustrator 23.0.3, SVG Export Plug-In . SVG Version: 6.00 Build 0)  -->
<svg version="1.1" id="Layer_1" xmlns="http://www.w3.org/2000/svg" xmlns:xlink="http://www.w3.org/1999/xlink" x="0px" y="0px"
	 viewBox="0 0 20 20" style="enable-background:new 0 0 20 20;" xml:space="preserve">
<style type="text/css">
	.st0{enable-background:new    ;}
	.st1{fill:#363636;}
</style>
<g class="st0">
	<path class="st1" d="M6.1,9.6l6.4-6.4c0.1-0.1,0.2-0.1,0.3-0.1s0.3,0,0.4,0.1L13.9,4C14,4.1,14,4.2,14,4.3c0,0.1-0.1,0.2-0.1,0.3
		l-5.4,5.4l5.4,5.3c0.1,0.1,0.1,0.2,0.1,0.3c0,0.1-0.1,0.2-0.1,0.3l-0.7,0.7c-0.1,0.1-0.2,0.1-0.3,0.1c-0.1,0-0.2,0-0.3-0.1
		l-6.4-6.4C6.1,10.3,6,10.1,6,9.9C6,9.8,6.1,9.7,6.1,9.6z"/>
</g>
</svg>
