<?xml version="1.0" encoding="utf-8"?>
<!-- Generator: Adobe Illustrator 23.0.3, SVG Export Plug-In . SVG Version: 6.00 Build 0)  -->
<svg version="1.1" id="Layer_1" xmlns="http://www.w3.org/2000/svg" xmlns:xlink="http://www.w3.org/1999/xlink" x="0px" y="0px"
	 viewBox="0 0 30 30" style="enable-background:new 0 0 30 30;" xml:space="preserve">
<style type="text/css">
	.st0{enable-background:new    ;}
	.st1{fill:#FFFFFF;}
</style>
<g class="st0">
	<path class="st1" d="M15.6,19l-6.9-6.9c-0.2-0.2-0.2-0.2-0.2-0.3c0-0.2,0-0.3,0.2-0.5l0.8-0.8c0.2-0.2,0.2-0.2,0.3-0.2
		c0.2,0,0.2,0.2,0.3,0.2l5.9,5.9l5.8-5.9c0.2,0,0.2,0,0.3,0s0.2,0.2,0.3,0.2l0.8,0.7c0.2,0.2,0.2,0.2,0.2,0.3c0,0.2,0,0.2-0.2,0.3
		l-6.9,6.9C16.3,19,16.1,19,16,19C15.8,19,15.8,19,15.6,19z"/>
</g>
</svg>
