<?xml version="1.0" encoding="utf-8"?>
<!-- Generator: Adobe Illustrator 23.0.3, SVG Export Plug-In . SVG Version: 6.00 Build 0)  -->
<svg version="1.1" id="Layer_1" xmlns="http://www.w3.org/2000/svg" xmlns:xlink="http://www.w3.org/1999/xlink" x="0px" y="0px"
	 viewBox="0 0 30 30" style="enable-background:new 0 0 30 30;" xml:space="preserve">
<style type="text/css">
	.st0{fill:#363636;}
</style>
<g>
	<path class="st0" d="M14.7,19.2l-7-7c-0.1-0.1-0.2-0.2-0.2-0.3s0.1-0.3,0.2-0.3l0.8-0.8c0.1-0.1,0.2-0.2,0.3-0.2
		c0.1,0,0.3,0.1,0.3,0.2l5.9,5.9l5.9-5.9c0.1-0.1,0.2-0.2,0.3-0.2c0.1,0,0.3,0.1,0.3,0.2l0.8,0.8c0.1,0.1,0.2,0.2,0.2,0.3
		s-0.1,0.3-0.2,0.3l-7,7c-0.1,0.1-0.2,0.2-0.3,0.2S14.7,19.3,14.7,19.2z"/>
</g>
</svg>
